<mxfile host="app.diagrams.net" modified="2023-04-14T08:32:25.881Z" agent="Mozilla/5.0 (Windows NT 10.0; Win64; x64) AppleWebKit/537.36 (KHTML, like Gecko) Chrome/112.0.0.0 Safari/537.36" version="21.1.7" etag="POhUJErCAXCjrw0q3oXz" type="github">
  <diagram name="Page-1" id="26BqaFEFgLb69xnMEXjC">
    <mxGraphModel>
      <root>
        <mxCell id="0" />
        <mxCell id="1" parent="0" />
      </root>
    </mxGraphModel>
  </diagram>
</mxfile>
